<svg width="178" height="64" viewBox="0 0 178 64" fill="none" xmlns="http://www.w3.org/2000/svg">
<path fill-rule="evenodd" clip-rule="evenodd" d="M10.6012 4.46804C9.93147 6.50233 9.274 8.45425 9.13944 8.80575C8.94707 9.31125 13.3508 9.4453 30.1153 9.4453H51.3346L52.6849 5.73589C53.4273 3.69546 54.0336 1.73893 54.0325 1.38692C54.0305 0.885513 49.4728 0.749929 32.9247 0.758627L11.8194 0.770392L10.6012 4.46804ZM7.53902 13.7574C7.30929 14.0588 6.5142 15.9749 5.77181 18.0153L4.42209 21.7247H25.6H46.7774L48.0775 18.2711C48.7928 16.3714 49.4462 14.4906 49.5296 14.0915C49.658 13.4745 46.538 13.3532 28.8188 13.2867C14.4866 13.233 7.82554 13.3803 7.53902 13.7574ZM62.7279 38.2912V63.6795L74.112 63.6738C80.3734 63.6708 86.3638 63.5249 87.4239 63.3494C88.4845 63.1745 90.55 62.3134 92.0144 61.4364C94.132 60.168 94.9931 59.2215 96.2257 56.8086C97.5723 54.1726 97.7754 53.2332 97.7754 49.6456C97.7754 44.4673 96.7537 42.3097 92.7946 39.1293L89.9391 36.8356L91.9565 35.1093C94.8928 32.5956 95.9847 30.1264 95.9847 26C95.9847 20.0767 93.2208 16.2051 87.6337 14.3033C85.54 13.5906 82.6503 13.3491 73.8561 13.1522L62.7279 12.903V38.2912ZM98.4523 17.3768L98.2871 21.7273L105.578 21.7258L112.869 21.7247V42.7021V63.6795H117.98H123.091L123.224 42.83L123.358 21.9806L129.785 21.8383L136.213 21.6956L137.4 18.001C138.052 15.9687 138.696 14.0184 138.83 13.6664C139.021 13.1614 134.815 13.0268 118.845 13.0268H98.6181L98.4523 17.3768ZM141.862 13.3681C141.674 13.5553 141.521 24.9701 141.521 38.7338V63.7582L154.184 63.5909C165.762 63.438 167.045 63.3315 169.15 62.3517C178.186 58.1445 180.274 44.5819 173.004 37.3124C169.467 33.7749 166.826 32.9809 158.602 32.9809H152.265V27.3528V21.7247L162.115 21.7222L171.964 21.7196L173.353 17.8076C174.117 15.6556 174.622 13.7001 174.474 13.4612C174.16 12.9531 142.367 12.8626 141.862 13.3681ZM82.6692 22.6211C85.0714 23.8291 86.1473 26.5731 85.3123 29.36C84.4492 32.241 82.8288 33.0719 77.4781 33.3769L72.9608 33.6342V27.6797V21.7247L76.926 21.7258C79.6807 21.7263 81.4341 21.9995 82.6692 22.6211ZM1.69146 29.2715C0.980784 31.1712 0.23839 33.1277 0.0424311 33.6204C-0.293207 34.4646 0.901478 34.5158 20.8934 34.5158H42.1005L43.4415 31.0622C44.1788 29.1625 44.9304 27.206 45.112 26.7132C45.4226 25.8695 44.2151 25.8179 24.213 25.8179H2.98438L1.69146 29.2715ZM163.973 42.5133C166.438 44.2396 167.269 48.5379 165.755 51.729C164.515 54.343 162.826 54.9815 157.152 54.9815H152.265V48.3302V41.6788H157.524C161.557 41.6788 163.06 41.8732 163.973 42.5133ZM82.7331 42.7077C85.3732 43.4409 86.3986 44.8223 86.662 47.9986C86.9179 51.0843 85.9509 53.5418 84.0885 54.5384C83.4612 54.8741 80.7009 55.2573 77.9544 55.3893L72.9608 55.6298V48.9104V42.1904L76.926 42.1935C79.1066 42.195 81.7201 42.4263 82.7331 42.7077Z" fill="#00A0E0"/>
<path fill-rule="evenodd" clip-rule="evenodd" d="M62.7279 63.6795V38.2912V12.903L73.8561 13.1522C82.6503 13.3491 85.54 13.5906 87.6337 14.3033C93.2208 16.2051 95.9847 20.0767 95.9847 26C95.9847 30.1264 94.8929 32.5956 91.9565 35.1093L89.9391 36.8356L92.7946 39.1293C96.7537 42.3097 97.7754 44.4673 97.7754 49.6456C97.7754 53.2332 97.5723 54.1726 96.2257 56.8086C94.9931 59.2215 94.132 60.168 92.0144 61.4364C90.55 62.3134 88.4845 63.1745 87.4239 63.3494C86.3638 63.5249 80.3735 63.6708 74.112 63.6738L62.7279 63.6795ZM98.2871 21.7273L98.4523 17.3768L98.6181 13.0268H118.845C134.815 13.0268 139.021 13.1614 138.83 13.6664C138.696 14.0184 138.052 15.9687 137.4 18.001L136.213 21.6956L129.785 21.8383L123.358 21.9806L123.224 42.83L123.091 63.6795H117.98H112.869V42.7021V21.7247L105.578 21.7258L98.2871 21.7273ZM141.521 38.7338C141.521 24.9701 141.674 13.5553 141.862 13.3681C142.367 12.8626 174.16 12.9531 174.474 13.4612C174.622 13.7001 174.117 15.6556 173.353 17.8076L171.964 21.7196L162.115 21.7222L152.265 21.7247V27.3528V32.9809H158.602C166.826 32.9809 169.467 33.7749 173.004 37.3124C180.274 44.5819 178.186 58.1445 169.15 62.3517C167.045 63.3315 165.762 63.438 154.184 63.5909L141.521 63.7582V38.7338ZM85.3123 29.36C86.1473 26.5731 85.0714 23.8291 82.6692 22.6211C81.4341 21.9995 79.6807 21.7263 76.926 21.7258L72.9608 21.7247V27.6797V33.6342L77.4781 33.3769C82.8288 33.0719 84.4492 32.241 85.3123 29.36ZM165.755 51.729C167.269 48.5379 166.438 44.2396 163.973 42.5133C163.06 41.8732 161.557 41.6788 157.524 41.6788H152.265V48.3302V54.9815H157.152C162.826 54.9815 164.515 54.343 165.755 51.729ZM86.6621 47.9986C86.3986 44.8223 85.3732 43.4409 82.7331 42.7077C81.7201 42.4263 79.1066 42.195 76.926 42.1935L72.9608 42.1904V48.9104V55.6298L77.9544 55.3893C80.7009 55.2573 83.4612 54.8741 84.0885 54.5384C85.9509 53.5418 86.9179 51.0843 86.6621 47.9986Z" fill="white"/>
</svg>
